<svg version="1.2" xmlns="http://www.w3.org/2000/svg" viewBox="0 0 464 127" width="464" height="127">
	<title>Bosch_symbol_logo_black_red-svg</title>
	<style>
		.s0 { fill: none } 
		.s1 { fill: #ed0007 } 
		.s2 { fill: #000000 } 
	</style>
	<path id="Layer" class="s0" d="m-48-48h560.2v223.6h-560.2z"/>
	<path id="Layer" fill-rule="evenodd" class="s1" d="m212.3 77.7c0 10.7-9.8 17.7-19.8 17.7h-32.5v-63.6h29.9c11.4 0 19.7 5.8 19.7 17.5q0 2.1-0.6 4.1-0.6 2-1.8 3.8-1.1 1.7-2.8 3-1.6 1.3-3.6 2.1c0 0.1 11.5 2.7 11.5 15.4zm-36.7-20.9h11.3q1.2 0.1 2.4-0.3 1.1-0.4 2-1.3 0.9-0.8 1.4-1.9 0.5-1.1 0.5-2.3 0.1-1.2-0.4-2.4-0.4-1.1-1.3-1.9-0.8-0.9-1.9-1.3-1.2-0.5-2.4-0.4h-11.6zm19.8 19c0-3.7-2.7-6.2-8.4-6.2h-11.4v12.5h11.7c4.7 0 8.1-1.7 8.1-6.3z"/>
	<path id="Layer" fill-rule="evenodd" class="s1" d="m275.9 63.5c0 18.7-10.7 33.3-29.2 33.3-18.4 0-29.2-14.6-29.2-33.3 0-18.6 10.8-33.3 29.2-33.3 18.5 0 29.2 14.7 29.2 33.3zm-15.6 0c0-9.9-4.6-18-13.6-18-9 0-13.5 8-13.5 18 0 10 4.5 18.1 13.5 18.1 9 0 13.6-8 13.6-18.1z"/>
	<path id="Layer" fill-rule="evenodd" class="s1" d="m309.8 56.8l-2.2-0.5c-5.4-1.1-9.7-2.5-9.7-6.4 0-4.2 4.1-5.9 7.7-5.9q1.8 0 3.6 0.4 1.8 0.4 3.5 1.2 1.7 0.8 3.2 1.8 1.5 1.1 2.7 2.5l9.9-9.8c-4.5-5.1-11.8-10-23.2-10-13.4 0-23.6 7.5-23.6 20 0 11.4 8.2 17 18.2 19.1l2.2 0.5c8.3 1.7 11.4 3 11.4 7 0 3.8-3.4 6.3-8.6 6.3-6.2 0-11.8-2.7-16.1-8.2l-10.1 10c5.6 6.7 12.7 11.9 26.4 11.9 11.9 0 24.6-6.8 24.6-20.7 0.2-14.5-10.8-17.3-19.9-19.2z"/>
	<path id="Layer" fill-rule="evenodd" class="s1" d="m365.3 81.6c-7 0-14.3-5.8-14.3-18.5 0-11.3 6.8-17.6 13.9-17.6 5.6 0 8.9 2.6 11.5 7.1l12.8-8.5c-6.4-9.7-14-13.8-24.5-13.8-19.2 0-29.6 14.9-29.6 32.9 0 18.9 11.5 33.7 29.4 33.7 12.6 0 18.6-4.4 25.1-13.8l-12.9-8.7c-2.6 4.2-5.4 7.2-11.4 7.2z"/>
	<path id="Layer" class="s1" d="m431.9 31.8v23.4h-19.3v-23.4h-16.7v63.6h16.7v-25.1h19.3v25.1h16.7v-63.6h-16.7z"/>
	<path id="Layer" fill-rule="evenodd" class="s2" d="m82.2 19.3c5.9 2.4 11.2 5.9 15.7 10.4 4.5 4.5 8 9.8 10.4 15.7 2.4 5.8 3.7 12.1 3.7 18.4 0 19.5-11.7 37.1-29.8 44.5-18 7.5-38.7 3.4-52.5-10.4-13.8-13.8-17.9-34.5-10.4-52.5 7.4-18.1 25-29.8 44.5-29.8 6.3 0 12.6 1.3 18.4 3.7zm-1.7 84.9c5.3-2.2 10.1-5.5 14.2-9.5 4-4.1 7.3-8.9 9.5-14.2 2.2-5.3 3.3-11 3.3-16.7 0-17.7-10.6-33.6-27-40.4-16.3-6.7-35.1-3-47.6 9.5-12.5 12.5-16.2 31.3-9.5 47.6 6.8 16.4 22.7 27 40.4 27 5.7 0 11.4-1.1 16.7-3.3z"/>
	<path id="Layer" fill-rule="evenodd" class="s2" d="m95.6 46.7c2.8 5.3 4.3 11.1 4.3 17.1 0 6-1.5 11.8-4.3 17.1-2.8 5.2-6.9 9.7-11.9 13h-3.3v-16.5h-33.1v16.5h-3.4c-5-3.3-9.1-7.8-11.9-13-2.8-5.3-4.3-11.1-4.3-17.1 0-6 1.5-11.8 4.3-17.1 2.8-5.2 6.9-9.7 11.9-13h3.4v16.5h33.1v-16.5h3.3c5 3.3 9.1 7.8 11.9 13zm-52.9-6.5c-3.3 3-6 6.6-7.8 10.7-1.9 4-2.8 8.4-2.8 12.9 0 4.5 0.9 8.9 2.8 12.9 1.8 4.1 4.5 7.7 7.8 10.7zm37.7 14.5h-33.1v18.1h33.1zm12.3 21.9c1.8-4 2.7-8.4 2.7-12.9 0-4.4-0.9-8.8-2.7-12.8-1.9-4.1-4.5-7.7-7.8-10.7v47.1c3.3-3 5.9-6.6 7.8-10.7z"/>
</svg>