<svg version="1.2" xmlns="http://www.w3.org/2000/svg" viewBox="0 0 3840 2160" width="3840" height="2160"><style>.a{fill:#232628}.b{fill:#1a1c1d}.c{fill:#1e2122}.d{fill:none}</style><path class="a" d="m0 0h3840v2160h-3840z"/><path class="b" d="m1760.2 705.5h217.7c25.5 0.3 49.2-13.1 62.1-35.2 12.8-22 12.8-49.2 0-71.3-12.9-22-36.6-35.5-62.1-35.1q-6.1-0.1-12.1 1l-34.8 5.9c-9.1-42.3-46.6-72.6-89.9-72.5-50.8 0-91.9 41-91.9 91.5q0 5.9 0.8 11.8c-26.6 5.2-44.8 29.7-42.2 56.6 2.7 26.9 25.3 47.4 52.4 47.3z"/><path class="b" d="m814 436.1h197.1c24.7 0.1 45.3-18.7 47.4-43.4 2.1-24.6-15-46.7-39.3-50.8l-28.2-4.8q0.2-2.8 0.2-5.7c0-45.7-37.2-82.8-83.1-82.8-37.3 0-70.1 24.8-80.2 60.7l-2.9-0.5c-23.9-4.2-48.1 5.4-62.6 24.9-14.5 19.5-16.7 45.5-5.8 67.1 10.9 21.7 33.1 35.4 57.4 35.3z"/><path class="b" d="m2719.4 696h345.8c46.2 0 83.7-37.3 83.7-83.3-0.1-40.6-29.5-75.2-69.5-82l-49.6-8.4q0.4-5 0.4-10.1c0-80.2-65.3-145.2-145.9-145.2-65.5-0.1-123 43.4-140.7 106.5l-5-0.9c-6.3-1-12.7-1.6-19.2-1.6-62.4 0-113 50.4-113 112.5 0 62.1 50.6 112.5 113 112.5z"/><path class="b" d="m3689.2 2158.7c-127.1-197.7-229.3-249.5-324.8-259.9v-48c23.6-1.8 44.6-15.8 55.2-36.9 10.7-21.2 9.5-46.4-3.1-66.4 1.3-6.4 2.9-14.8 2.9-17.7 0-33.1-60-134.4-60-134.4 0 0-60 101.3-60 134.4 0 2.9 1.7 10.8 3.2 17.2-12.9 20-14.3 45.3-3.7 66.6 10.7 21.3 31.7 35.4 55.5 37.2v47.1c-105.6-8.5-203.8 29.6-319.6-29-215-108.9-403.7-72.5-550.5 5.8v-898.4h-639.7v355.2h-321.7v-216.1h-669v793.2q-7-0.1-14-0.1c-106.5-0.1-212.4 15.4-314.3 46.2v-103.5c38.6-2.9 72.9-25.8 90.3-60.3 17.5-34.6 15.5-75.8-5.2-108.5 2.2-10.6 4.7-24.1 4.7-29 0-54.1-98-219.5-98-219.5 0 0-98 165.4-98 219.5 0 4.7 2.9 17.7 5.3 28.1-21.1 32.7-23.3 74.1-6 108.9 17.4 34.8 51.8 57.9 90.6 60.8v108.5c-132.1 42.2-254.6 109.8-360.8 199h1696.2v0.3h639.7v-0.3z"/><path class="c" d="m1844.7 1027.4h116.2v155.4h-116.2z"/><path class="c" d="m1975.5 1027.4h116.2v155.4h-116.2z"/><path class="c" d="m2106.4 1027.4h116.2v155.4h-116.2z"/><path class="c" d="m2237.3 1027.4h116.2v155.4h-116.2z"/><path class="c" d="m2368.2 1027.4h116.2v155.4h-116.2z"/><path class="c" d="m1844.7 1233.9h116.2v155.5h-116.2z"/><path class="c" d="m1975.5 1233.9h116.2v155.5h-116.2z"/><path class="c" d="m2106.4 1233.9h116.2v155.5h-116.2z"/><path class="c" d="m2237.3 1233.9h116.2v155.5h-116.2z"/><path class="c" d="m2368.2 1233.9h116.2v155.5h-116.2z"/><path class="c" d="m1844.7 1440.5h116.2v155.4h-116.2z"/><path class="c" d="m1975.5 1440.5h116.2v155.4h-116.2z"/><path class="c" d="m2106.4 1440.5h116.2v155.4h-116.2z"/><path class="c" d="m2237.3 1440.5h116.2v155.4h-116.2z"/><path class="c" d="m2368.2 1440.5h116.2v155.4h-116.2z"/><path class="c" d="m1844.7 1647h116.2v155.5h-116.2z"/><path class="c" d="m1975.5 1647h116.2v155.5h-116.2z"/><path class="c" d="m2106.4 1647h116.2v155.5h-116.2z"/><path class="c" d="m2237.3 1647h116.2v155.5h-116.2z"/><path class="c" d="m2368.2 1647h116.2v155.5h-116.2z"/><path class="c" d="m1844.7 1853.6h116.2v155.4h-116.2z"/><path class="c" d="m1975.5 1853.6h116.2v155.4h-116.2z"/><path class="c" d="m2106.4 1853.6h116.2v155.4h-116.2z"/><path class="c" d="m2237.3 1853.6h116.2v155.4h-116.2z"/><path class="c" d="m2368.2 1853.6h116.2v155.4h-116.2z"/><path class="c" d="m853.9 1202.5h669v102.6h-669z"/><path class="c" d="m853.9 1378.5h669v102.5h-669z"/><path class="c" d="m853.9 1554.5h669v102.5h-669z"/><path class="c" d="m853.9 1730.5h669v102.5h-669z"/><path class="c" d="m853.9 1906.5h669v102.5h-669z"/><path class="d" d="m150.8 2187.8h3540.6v29.5h-3540.6z"/><path class="d" d="m150.8 2158.7h3540.6v29.5h-3540.6z"/></svg>